<svg id="Camada_1" data-name="Camada 1" xmlns="http://www.w3.org/2000/svg" viewBox="0 0 841.89 595.28"><defs><style>.cls-1{fill:#590000;}</style></defs><path class="cls-1" d="M307.61,259.41a24.55,24.55,0,0,0,13.58,22V378a11,11,0,0,0,11,11h0a11,11,0,0,0,11-11V281.38a24.56,24.56,0,1,0-35.53-22Z"/><path class="cls-1" d="M392.42,260.77h-.11a2.55,2.55,0,0,1-2.45-2.66,53.29,53.29,0,0,0-50.95-55.41,2.56,2.56,0,0,1,.21-5.11A58.4,58.4,0,0,1,395,258.31,2.56,2.56,0,0,1,392.42,260.77Z"/><path class="cls-1" d="M379.74,260.23h-.11a2.56,2.56,0,0,1-2.45-2.66,40.57,40.57,0,0,0-38.8-42.2,2.56,2.56,0,0,1,.21-5.12,45.71,45.71,0,0,1,43.71,47.53A2.56,2.56,0,0,1,379.74,260.23Z"/><path class="cls-1" d="M367.07,259.7H367a2.56,2.56,0,0,1-2.45-2.66,27.89,27.89,0,0,0-26.66-29,2.56,2.56,0,0,1,.21-5.12,33,33,0,0,1,31.57,34.33A2.56,2.56,0,0,1,367.07,259.7Z"/><path class="cls-1" d="M379.05,296.78l-7,30.24c-.42,1.56-1.2,3.36-3.18,3.36-1.74,0-2.82-1.56-3.24-3.36l-8.94-37.14a2.94,2.94,0,0,1-.05-.66c0-1.32,1.43-2.1,2.69-2.1a2.15,2.15,0,0,1,2.16,1.74l7.44,32,7-30.48c.54-2.22,1.08-3.48,3.12-3.48s2.58,1.38,3.06,3.48l7,30.48,7.44-32a2.2,2.2,0,0,1,2-1.74c1.26,0,2.88.66,2.88,2.16a5.35,5.35,0,0,1-.12.66L392.37,327c-.42,1.74-1.38,3.36-3.18,3.36S386.37,328.7,386,327Z"/><path class="cls-1" d="M426.39,329.78h-15.9c-2,0-3.78-.66-3.78-2.82V290.3a2.9,2.9,0,0,1,2.82-2.82h16.26a2.41,2.41,0,0,1,2.4,2.4,2.31,2.31,0,0,1-2.4,2.28H411.51v14h13.14a2.38,2.38,0,0,1,2.34,2.34,2.31,2.31,0,0,1-2.34,2.34H411.51V325.1h14.88a2.38,2.38,0,0,1,2.4,2.22A2.42,2.42,0,0,1,426.39,329.78Z"/><path class="cls-1" d="M438,329.78a2.88,2.88,0,0,1-2.88-2.88V290.36a2.88,2.88,0,0,1,2.88-2.88h10.14c7.8,0,11.7,5.34,11.7,10.92,0,5.16-3.3,7.74-7.74,9.6,4,1.26,8.88,3.06,8.88,9.78s-5,12-13.08,12Zm8.82-24.3c3.9,0,8.22-2.28,8.22-7.14,0-3.18-1.8-6.18-7.2-6.18H440v13.32Zm-6.9,4.68V325.1h7.32c6,0,8.94-2.94,8.94-7.26,0-5-3.9-7.68-9.18-7.68Z"/><path class="cls-1" d="M357.1,344.78a1.92,1.92,0,0,1,3.84,0v9h7a1.77,1.77,0,0,1,1.74,1.86,1.74,1.74,0,0,1-1.74,1.74h-7v12.84c0,6.66.72,9.12,5.58,9.12.42,0,.78-.06,1.2-.06,1.14,0,2.7.18,2.7,1.8s-1.56,1.86-3,1.86c-8.28,0-10.32-4.08-10.32-12.3Z"/><path class="cls-1" d="M392.2,378.14a1.74,1.74,0,0,1,.66-.18,1.72,1.72,0,0,1,1.68,1.68c0,2.7-6.36,3.54-9.54,3.54-6.72,0-10.56-4.26-10.56-9.78V361.88c0-5.7,3.84-10,10.92-10,6.54,0,9.72,3.78,9.72,9.6,0,5.4-2.94,8.7-10,8.7a34.94,34.94,0,0,1-6.78-.66v4.26c0,3.66,2.46,6.12,7.26,6.12A14.55,14.55,0,0,0,392.2,378.14Zm-7-22.86c-4.32,0-6.84,2.4-6.84,6.12v5.1a60.12,60.12,0,0,0,7,.48c5,0,5.88-2.7,5.88-5.52C391.24,357.08,389,355.28,385.18,355.28Z"/><path class="cls-1" d="M401.62,340.76a2,2,0,0,1,1.92-2,2,2,0,0,1,1.92,2v36.6a4.43,4.43,0,0,0,1.08,3.24,2,2,0,0,1,.24.84,1.67,1.67,0,0,1-1.74,1.74c-1.32,0-3.42-.66-3.42-5.82Z"/><path class="cls-1" d="M431.14,378.14a1.74,1.74,0,0,1,.66-.18,1.72,1.72,0,0,1,1.68,1.68c0,2.7-6.36,3.54-9.54,3.54-6.72,0-10.56-4.26-10.56-9.78V361.88c0-5.7,3.84-10,10.92-10,6.54,0,9.72,3.78,9.72,9.6,0,5.4-2.94,8.7-10,8.7a34.94,34.94,0,0,1-6.78-.66v4.26c0,3.66,2.46,6.12,7.26,6.12A14.55,14.55,0,0,0,431.14,378.14Zm-7-22.86c-4.32,0-6.84,2.4-6.84,6.12v5.1a60.12,60.12,0,0,0,7,.48c5,0,5.88-2.7,5.88-5.52C430.18,357.08,428,355.28,424.12,355.28Z"/><path class="cls-1" d="M439.48,363c0-6.12,3.24-10.92,10.68-10.92,2.7,0,8.1.72,8.1,3.3a1.61,1.61,0,0,1-1.62,1.62,4.08,4.08,0,0,1-.9-.12h.06a10.27,10.27,0,0,0-5.16-1.5c-5.22,0-7.26,2.82-7.26,7.62v9.36c0,4.74,2,7.56,7.26,7.56a10.31,10.31,0,0,0,5.16-1.44h-.06a3.33,3.33,0,0,1,.9-.18,1.67,1.67,0,0,1,1.62,1.68c0,2.52-5.4,3.24-8.1,3.24-7.44,0-10.68-4.74-10.68-10.86Z"/><path class="cls-1" d="M462.76,372.68V362.36c0-5.94,3.9-10.56,11.1-10.56s11.1,4.62,11.1,10.56v10.32c0,5.94-3.84,10.5-11.1,10.5S462.76,378.62,462.76,372.68Zm18.3,0V362.3c0-4.32-2.4-7-7.2-7s-7.2,2.7-7.2,7v10.38c0,4.32,2.46,7,7.2,7S481.06,377,481.06,372.68Z"/><path class="cls-1" d="M504.28,351.86a8.37,8.37,0,0,1,7.08,3.36,14.83,14.83,0,0,1,9.06-3.36c6.36,0,9.78,4.08,9.78,10.08v19.32a1.72,1.72,0,0,1-1.92,1.86,1.8,1.8,0,0,1-2-1.86v-19.2c0-3.72-1.92-6.72-6.06-6.72a9.71,9.71,0,0,0-7.26,3.6,14.92,14.92,0,0,1,.3,3v19.32a1.72,1.72,0,0,1-1.92,1.86,1.77,1.77,0,0,1-2-1.86V363.32c0-4.68-.78-8-5.58-8a13.65,13.65,0,0,0-7.62,2.76,12.59,12.59,0,0,1,.18,2.16v21a1.75,1.75,0,0,1-1.92,1.86,1.77,1.77,0,0,1-2-1.86v-21c0-2.1-.24-3.36-1.08-4.56a1.63,1.63,0,0,1-.36-1,1.74,1.74,0,0,1,1.74-1.74,2.82,2.82,0,0,1,2.34,1.86A17,17,0,0,1,504.28,351.86Z"/></svg>