<?xml version="1.0" encoding="utf-8"?>
<!-- Generator: Adobe Illustrator 25.2.3, SVG Export Plug-In . SVG Version: 6.00 Build 0)  -->
<svg version="1.1" id="Layer_1" xmlns="http://www.w3.org/2000/svg" xmlns:xlink="http://www.w3.org/1999/xlink" x="0px" y="0px"
	 viewBox="0 0 649.18 450" style="enable-background:new 0 0 649.18 450;" xml:space="preserve">
<style type="text/css">
	.st0{fill:#590000;}
	.st1{fill:#D8D8D6;}
	.st2{fill:#D12626;}
	.st3{fill:#1A1A1A;}
	.st4{fill:#CCCCCC;}
	.st5{opacity:0.35;}
	.st6{fill:#FFFFFF;}
	.st7{fill:#B3B3B3;}
	.st8{fill:url(#SVGID_1_);}
	.st9{fill:#FFD6BD;}
	.st10{fill:#FB6D83;}
	.st11{fill:#FFADAD;}
	.st12{fill:#E87F7F;}
	.st13{opacity:0.54;fill:#FFFFFF;}
	.st14{opacity:0.22;fill:#52BEFF;}
</style>
<g>
	<g>
		<path class="st2" d="M544.51,216.28c0.68,0.68,1.36,1.34,2.07,1.98l-4.82,9.27c2.17,1.83,4.44,3.49,6.78,4.99l7.4-7.38
			c1.66,0.97,3.36,1.84,5.09,2.62l-1.73,10.32c2.62,1.05,5.29,1.93,8,2.63l4.76-9.32c1.87,0.4,3.75,0.71,5.64,0.92l1.55,10.34
			c2.8,0.19,5.62,0.21,8.42,0.04l1.65-10.32c1.89-0.19,3.78-0.48,5.65-0.87l4.67,9.37c2.71-0.68,5.39-1.53,8.02-2.55l-1.63-10.34
			c1.74-0.76,3.45-1.62,5.11-2.57l7.33,7.45c2.36-1.48,4.64-3.11,6.83-4.92l-4.73-9.32c0.71-0.63,1.4-1.29,2.08-1.96
			c0.68-0.68,1.34-1.36,1.98-2.07l9.27,4.83c1.83-2.18,3.49-4.44,4.99-6.78l-7.38-7.4c0.97-1.66,1.84-3.36,2.62-5.09l10.32,1.73
			c1.05-2.62,1.93-5.29,2.63-7.99l-9.32-4.76c0.4-1.87,0.71-3.75,0.92-5.64l10.34-1.55c0.19-2.8,0.21-5.62,0.04-8.42l-10.32-1.65
			c-0.19-1.89-0.48-3.78-0.87-5.65l9.37-4.67c-0.68-2.71-1.52-5.39-2.55-8.02l-10.34,1.63c-0.76-1.74-1.62-3.45-2.57-5.11l7.46-7.33
			c-1.48-2.36-3.11-4.64-4.92-6.83l-9.32,4.73c-0.63-0.71-1.29-1.4-1.96-2.08c-0.68-0.68-1.36-1.34-2.07-1.98l4.83-9.27
			c-2.18-1.83-4.44-3.49-6.78-4.99l-7.4,7.38c-1.66-0.97-3.36-1.84-5.09-2.62l1.73-10.32c-2.62-1.05-5.29-1.93-7.99-2.63l-4.76,9.32
			c-1.87-0.4-3.75-0.71-5.64-0.92l-1.55-10.34c-2.8-0.19-5.62-0.21-8.42-0.04l-1.65,10.32c-1.89,0.19-3.78,0.48-5.65,0.87
			l-4.67-9.37c-2.71,0.68-5.39,1.53-8.02,2.55l1.63,10.34c-1.74,0.76-3.45,1.62-5.11,2.57l-7.33-7.46
			c-2.36,1.48-4.64,3.11-6.83,4.92l4.73,9.32c-0.71,0.63-1.4,1.29-2.09,1.96c-0.68,0.68-1.34,1.36-1.98,2.07l-9.27-4.82
			c-1.83,2.18-3.49,4.44-4.99,6.78l7.38,7.4c-0.97,1.66-1.84,3.36-2.62,5.09l-10.32-1.73c-1.05,2.62-1.93,5.29-2.63,7.99l9.32,4.76
			c-0.4,1.87-0.71,3.75-0.92,5.64l-10.34,1.55c-0.19,2.8-0.21,5.62-0.04,8.42l10.32,1.65c0.19,1.89,0.48,3.78,0.87,5.65l-9.37,4.67
			c0.68,2.71,1.53,5.39,2.55,8.02l10.34-1.63c0.76,1.74,1.62,3.45,2.57,5.11l-7.45,7.33c1.48,2.36,3.11,4.64,4.92,6.83l9.32-4.73
			C543.18,214.91,543.83,215.6,544.51,216.28z M552.89,146.22c17.22-17.06,45.01-16.92,62.07,0.3s16.92,45.01-0.3,62.06
			c-17.22,17.05-45.01,16.92-62.07-0.3C535.53,191.06,535.67,163.27,552.89,146.22z"/>
	</g>
	<g>
		<path class="st0" d="M15.04,126.26c0.39,0.39,0.78,0.77,1.19,1.14l-2.78,5.33c1.25,1.05,2.56,2,3.9,2.87l4.26-4.25
			c0.95,0.56,1.93,1.06,2.93,1.51l-0.99,5.94c1.51,0.61,3.04,1.11,4.6,1.51l2.74-5.36c1.07,0.23,2.16,0.41,3.25,0.53l0.89,5.95
			c1.61,0.11,3.23,0.12,4.84,0.02l0.95-5.94c1.09-0.11,2.17-0.28,3.25-0.5l2.69,5.39c1.56-0.39,3.1-0.88,4.61-1.47l-0.94-5.95
			c1-0.44,1.98-0.93,2.94-1.48l4.21,4.29c1.36-0.85,2.67-1.79,3.93-2.83l-2.72-5.36c0.41-0.36,0.81-0.74,1.2-1.13
			c0.39-0.39,0.77-0.78,1.14-1.19l5.33,2.78c1.05-1.25,2-2.56,2.87-3.9l-4.25-4.26c0.56-0.95,1.06-1.93,1.51-2.93l5.94,0.99
			c0.61-1.5,1.11-3.04,1.51-4.6l-5.36-2.74c0.23-1.07,0.41-2.16,0.53-3.25l5.95-0.89c0.11-1.61,0.12-3.23,0.02-4.84l-5.94-0.95
			c-0.11-1.09-0.28-2.17-0.5-3.25l5.39-2.69c-0.39-1.56-0.88-3.1-1.47-4.61l-5.95,0.94c-0.44-1-0.93-1.98-1.48-2.94l4.29-4.21
			c-0.85-1.36-1.79-2.67-2.83-3.93l-5.36,2.72c-0.36-0.41-0.74-0.81-1.13-1.2c-0.39-0.39-0.79-0.77-1.19-1.14l2.78-5.33
			c-1.25-1.05-2.56-2.01-3.9-2.87l-4.26,4.25c-0.95-0.56-1.93-1.06-2.93-1.51L51.7,69c-1.5-0.61-3.04-1.11-4.6-1.51l-2.74,5.36
			c-1.07-0.23-2.16-0.41-3.25-0.53l-0.89-5.95c-1.61-0.11-3.23-0.12-4.84-0.02l-0.95,5.94c-1.09,0.11-2.17,0.28-3.25,0.5l-2.69-5.39
			c-1.56,0.39-3.1,0.88-4.61,1.47l0.94,5.95c-1,0.44-1.98,0.93-2.94,1.48L17.66,72c-1.35,0.85-2.67,1.79-3.93,2.83l2.72,5.36
			c-0.41,0.36-0.81,0.74-1.2,1.13c-0.39,0.39-0.77,0.78-1.14,1.19l-5.33-2.78c-1.05,1.25-2,2.56-2.87,3.9l4.25,4.26
			c-0.56,0.95-1.06,1.93-1.51,2.93l-5.94-0.99c-0.61,1.5-1.11,3.04-1.51,4.6l5.36,2.74c-0.23,1.07-0.41,2.16-0.53,3.25l-5.95,0.89
			c-0.11,1.61-0.12,3.23-0.02,4.84L6,107.08c0.11,1.09,0.28,2.17,0.5,3.25l-5.39,2.69c0.39,1.56,0.88,3.1,1.47,4.61l5.95-0.94
			c0.44,1,0.93,1.98,1.48,2.94l-4.29,4.21c0.85,1.36,1.79,2.67,2.83,3.93l5.36-2.72C14.27,125.47,14.65,125.87,15.04,126.26z
			 M19.86,85.96c9.91-9.81,25.89-9.73,35.7,0.17c9.81,9.91,9.73,25.89-0.17,35.7c-9.91,9.81-25.89,9.73-35.7-0.17
			C9.87,111.75,9.95,95.77,19.86,85.96z"/>
	</g>
	<g>
		<path class="st3" d="M506.53,361.55H66.36c-2.49,0-4.51-2.02-4.51-4.51V117.48c0-2.49,2.02-4.51,4.51-4.51h440.17
			c2.49,0,4.51,2.02,4.51,4.51v239.56C511.04,359.54,509.02,361.55,506.53,361.55z"/>
		<path class="st4" d="M70.88,350.31V124.22c0-1.23,0.99-2.22,2.22-2.22h426.7c1.23,0,2.22,0.99,2.22,2.22v226.09
			c0,1.23-0.99,2.22-2.22,2.22H73.1C71.87,352.53,70.88,351.54,70.88,350.31z"/>
		<g>
			<g>
				<path class="st2" d="M269.67,283.37c0,7.57,6.14,13.7,13.7,13.7c7.57,0,13.7-6.14,13.7-13.7c0-7.57-6.14-13.7-13.7-13.7
					C275.8,269.67,269.67,275.8,269.67,283.37z"/>
			</g>
			<g>
				<path class="st2" d="M322.64,283.53c-4.15,0-7.96-2.73-9.15-6.92c-3.79-13.4-16.18-22.76-30.13-22.76
					c-13.68,0-26.01,9.13-29.97,22.21c-1.52,5.03-6.84,7.86-11.86,6.34c-5.03-1.52-7.87-6.83-6.34-11.86
					c6.47-21.36,25.83-35.72,48.17-35.72c22.41,0,42.33,15.05,48.43,36.59c1.43,5.05-1.51,10.31-6.56,11.74
					C324.38,283.42,323.5,283.53,322.64,283.53z"/>
			</g>
			<g>
				<path class="st2" d="M354.62,270.24c-3.95,0-7.64-2.48-9-6.43c-9.11-26.58-34.13-44.44-62.26-44.44
					c-27.74,0-52.65,17.54-61.98,43.65c-1.77,4.95-7.21,7.52-12.16,5.76c-4.95-1.77-7.52-7.21-5.76-12.16
					c12.03-33.66,44.13-56.27,79.89-56.27c36.25,0,68.5,23.02,80.25,57.29c1.7,4.97-0.94,10.38-5.91,12.08
					C356.68,270.07,355.64,270.24,354.62,270.24z"/>
			</g>
			<g>
				<path class="st2" d="M179.18,257.03c-1.07,0-2.16-0.18-3.23-0.57c-4.94-1.79-7.5-7.24-5.71-12.18
					c17.16-47.48,62.63-79.38,113.13-79.38c50.51,0,95.97,31.9,113.13,79.38c1.79,4.94-0.77,10.39-5.71,12.18
					c-4.94,1.78-10.39-0.77-12.18-5.71c-14.45-39.97-52.72-66.82-95.24-66.82c-42.52,0-80.8,26.85-95.25,66.82
					C186.72,254.62,183.07,257.03,179.18,257.03z"/>
			</g>
		</g>
		<g class="st5">
			<path class="st6" d="M160.76,352.53h111.5L130.67,122H79.64c-4.83,0-8.76,3.93-8.76,8.77v63.69L160.76,352.53z"/>
			<path class="st6" d="M493.25,122h-68.49l77.25,74v-65.23C502.02,125.93,498.08,122,493.25,122z"/>
			<polygon class="st6" points="316.35,122 275.01,122 440.85,352.53 478.73,352.53 			"/>
			<polygon class="st6" points="246.72,122 201.6,122 353.88,352.53 409.27,352.53 			"/>
		</g>
	</g>
	<rect x="235.28" y="361.55" class="st3" width="102.34" height="34.28"/>
	<ellipse class="st7" cx="295.45" cy="431.45" rx="249.78" ry="18.55"/>
	<path class="st3" d="M426.64,429.94H146.26v-28.86c0-2.9,2.35-5.25,5.25-5.25h269.88c2.9,0,5.25,2.35,5.25,5.25V429.94z"/>
	<g>
		<g>
			<g>
				<linearGradient id="SVGID_1_" gradientUnits="userSpaceOnUse" x1="91.444" y1="311.45" x2="234.9007" y2="311.45">
					<stop  offset="0" style="stop-color:#D12626"/>
					<stop  offset="1" style="stop-color:#590000"/>
				</linearGradient>
				<path class="st8" d="M234.9,323.88H103.87c-6.86,0-12.43-5.56-12.43-12.43c0-6.86,5.56-12.43,12.43-12.43H234.9L234.9,323.88z"
					/>
				<path class="st0" d="M230.36,323.88c-6.86,0-12.43-5.56-12.43-12.43c0-6.86,5.56-12.43,12.43-12.43
					c6.86,0,12.43,5.56,12.43,12.43C242.78,318.31,237.22,323.88,230.36,323.88z"/>
				<path class="st3" d="M258.26,300.75c5.9,0,10.7,4.8,10.7,10.7c0,5.9-4.8,10.7-10.7,10.7H103.87c-5.9,0-10.7-4.8-10.7-10.7
					c0-5.9,4.8-10.7,10.7-10.7H258.26L258.26,300.75z M258.26,299.02H103.87c-6.86,0-12.43,5.56-12.43,12.43
					c0,6.86,5.56,12.43,12.43,12.43h154.39c6.86,0,12.43-5.56,12.43-12.43C270.68,304.59,265.12,299.02,258.26,299.02L258.26,299.02
					z"/>
				<path class="st2" d="M233.82,323.88c-6.86,0-12.43-5.56-12.43-12.43c0-6.86,5.56-12.43,12.43-12.43
					c6.86,0,12.43,5.56,12.43,12.43C246.25,318.31,240.68,323.88,233.82,323.88z"/>
			</g>
		</g>
		<g>
			<path d="M146.29,271.09c-2.89-1.59-6.73-1.69-9.33,0.34c-1.65,1.28-2.63,3.21-3.55,5.08c-2.99,6.02-5.98,12.04-8.97,18.07
				c-1.05,2.11-2.11,4.29-2.22,6.64c-0.12,2.45,0.83,4.91,0.43,7.33c-0.32,1.99-1.53,3.84-1.37,5.84c0.18,2.19,2.25,4.05,4.45,4
				c2.79-0.06,4.8-2.68,5.96-5.21c1.15-2.54,2-5.4,4.18-7.14c1.01-0.81,2.23-1.3,3.28-2.06c3.97-2.91,4.28-8.67,6.8-12.89
				c1.21-2.03,2.94-3.69,4.31-5.62C154.01,280.13,151.9,274.18,146.29,271.09z"/>
			<path class="st9" d="M140.96,289.21c-1.12,2.09-3.14,5.88-1.57,7.34c1.57,1.46,6.26,2.47,7.82,3.63
				c1.56,1.16,13.37,13.06,15.77,13.28c2.4,0.22,26.41-1.92,27.61-2.57c1.19-0.65,4.14-3.18,6.29-2.64c2.14,0.53,3.1,1.92,3.46,3.42
				c0.35,1.51-1.03,5.3-2.85,5.36c-1.82,0.06-6.67,0.33-9.08,0.71c-2.42,0.39-28.07,7.94-29.31,7.08
				c-1.24-0.87-17.39-11.46-18.61-11.72c-1.22-0.26-7.86,8.27-8.69,9.2c-2.3,2.59-4.02,6.82-3.66,8.32
				c0.36,1.51,22.78,35.96,23.14,37.77c0.37,1.81-39.92,49.33-39.85,51.15c0.06,1.82-1.23,8.54,0.32,9.4
				c1.55,0.86,8.35,4.57,7.47,5.51c-0.88,0.94-11.09-2.27-11.93-2.63c-4.71-2.01-6.52-8.58-5.38-10.75
				c1.14-2.16,27.83-49.68,27.19-50.57c-0.64-0.89-24.8-22.85-24.51-31.97c0.45-13.7,15.96-43.48,18.34-44.77s6.91-2.06,9.27-4.26
				c2.35-2.21,4.89-8.06,6.38-8.72C140.05,280.14,142.7,285.95,140.96,289.21z"/>
			<path class="st9" d="M110.76,326.67c-4.37,0.1-9.79,8-7.78,15.85c2.11,8.28,21.6,19.45,32.17,26.78
				c10.57,7.33,15.12,12.09,15.99,14.08c0.88,1.99,24.63,48.58,25.69,49.99c1.06,1.41,19.12,2.42,18.98,1.29
				c-0.23-1.85-15.79-8.77-12.4-7.34c1.86,0.78-19.03-53.5-20.11-55.48C162.23,369.86,121.48,326.44,110.76,326.67z"/>
			<path class="st10" d="M147.21,300.19c-1.28-0.96-4.69-1.81-6.73-2.9c-0.34,0.11-0.67,0.24-0.99,0.42
				c-1.8,1.02-2.79,2.99-4.12,4.58c-0.14,0.17-0.29,0.34-0.5,0.42c-0.84,0.32-1.27-0.97-1.3-1.86c-0.09-3.17-1.26-6.29-3.27-8.75
				c-0.25-0.31-0.53-0.61-0.82-0.9c-2.27,1.04-4.93,1.68-6.58,2.57c-1.89,1.03-12.02,19.94-16.37,34.56
				c3.06,1.75,6.55,2.81,10.06,3.28c3.96,0.53,7.96,0.35,11.93-0.14c-0.25-0.44-0.39-0.73-0.42-0.84c-0.35-1.51,1.37-5.73,3.66-8.32
				c0.83-0.94,7.47-9.46,8.69-9.2c0.51,0.11,3.61,2.01,7.14,4.25c0.81-1.08,1.67-2.12,2.57-3.11c1.92-2.13,4.21-3.71,6.35-5.5
				C152.53,305.21,148.12,300.87,147.21,300.19z"/>
			<g>
				<path class="st1" d="M78.85,316.81c-1.02,0-1.86-0.82-1.87-1.85c-0.01-1.04,0.81-1.89,1.85-1.9l140.92-2.02
					c1.05,0,1.89,0.82,1.9,1.85c0.01,1.04-0.81,1.89-1.85,1.9l-140.92,2.02C78.87,316.81,78.86,316.81,78.85,316.81z"/>
			</g>
			<path class="st9" d="M125.15,293.78c3.84,0.29,6.31,4.47,4.25,9.2c-2.07,4.73-11.31,12.4-10.88,12.99
				c0.43,0.59,14.93-1.32,15.94-1.55c1-0.24,6.32-4.67,7.73-4.72c1.42-0.05,6.97,2.69,6.05,5.41c-0.92,2.71-3.93,3.42-6.36,3.3
				c-2.43-0.12-6.27,0.21-7.26,0.65c-1,0.44-28.52,6.43-29.78,5.06c-2.05-2.76,7.25-17.77,9.74-21.9
				C117.07,298.09,120.59,293.42,125.15,293.78z"/>
			<path class="st9" d="M137.32,282.59c2.77-5.82,4.15-7.6,7.84-6.95c3.7,0.65,5.9,6.31,4.18,10.25c-1.73,3.94-5.36,6.7-6.74,6.9
				c-1.39,0.2-5.79-2.96-6.82-4.58C134.73,286.59,136.67,283.96,137.32,282.59z"/>
			<path class="st11" d="M123.02,312.71c2.69-2.72,5.23-7.11,6.38-9.73c2.07-4.73-0.41-8.9-4.25-9.2c-4.57-0.35-9.02,3-11.52,7.13
				c-0.75,1.25-2.45,4.17-3.94,6.76C113.41,308.97,119.23,311.64,123.02,312.71z"/>
			<path class="st12" d="M101.98,343.12c1.05,5.39,4.2,10.15,7.74,14.35c3.54,4.2,7.54,8.03,10.77,12.48
				c0.33,0.45,0.66,0.92,1.14,1.19c0.45,0.25,0.97,0.3,1.48,0.34c14.48,1.21,29.41,1.21,43.08-3.7
				c-10.1-13.7-22.2-25.93-35.81-36.16c-0.6-0.45-1.22-0.91-1.92-1.16c-1.07-0.38-2.24-0.28-3.37-0.21
				c-3.37,0.21-6.76,0.07-10.11-0.4c-2.29-0.32-6.71-2.34-8.74-1.39C101.76,330.57,101.2,339.13,101.98,343.12z"/>
			<path d="M145.88,281.59c-3.16,3.09-7.07,5.42-11.3,6.72c-0.93,0.29-1.97,0.52-2.86,0.11c-0.99-0.46-1.49-1.63-1.45-2.72
				c0.04-1.09,0.52-2.11,1.05-3.05c0.93-1.66,2.04-3.22,3.3-4.64c1.08-1.21,2.29-2.34,3.77-3.01c1.2-0.54,2.53-0.75,3.84-0.83
				c2.13-0.12,5.84,0.12,7.02,2.33C150.43,278.7,147.22,280.28,145.88,281.59z"/>
			<g>
				<g>
					<path d="M111.71,428.95c-0.46-0.25-0.67-1.02-0.74-2.02c-0.09-0.04-0.18-0.07-0.27-0.12c-1.12-0.58-1.95-1.59-2.66-2.63
						c-1.87-2.73-3.17-6.13-2.72-9.33c-1.92,3.46-3.23,5.8-3.46,6.25c-1.14,2.16,0.68,8.74,5.38,10.75
						c0.84,0.36,11.05,3.57,11.93,2.63C120.07,433.53,113.26,429.81,111.71,428.95z"/>
					<path d="M195.82,434.67c-0.18-1.45-9.74-5.99-12.27-7.22c-1.92,0.36-3.86,0.63-5.81,0.82c-1.2,0.11-2.45,0.18-3.64,0.04
						c1.53,2.91,2.55,4.81,2.75,5.08C177.9,434.79,195.96,435.8,195.82,434.67z"/>
				</g>
			</g>
			<g>
				<path class="st6" d="M233.01,324.94c-6.52,0-12.26-4.77-13.27-11.4c-0.54-3.55,0.33-7.09,2.45-9.99
					c2.13-2.89,5.25-4.78,8.8-5.33c0.55-0.1,1.07,0.29,1.15,0.85c0.09,0.55-0.29,1.07-0.85,1.15c-3.01,0.46-5.67,2.07-7.47,4.53
					c-1.8,2.46-2.54,5.47-2.08,8.49c0.95,6.22,6.79,10.51,13.01,9.55c0.55-0.09,1.07,0.29,1.15,0.85c0.09,0.55-0.29,1.07-0.85,1.15
					C234.37,324.89,233.69,324.94,233.01,324.94z"/>
			</g>
		</g>
	</g>
	<g>
		<g>
			<path class="st9" d="M120.85,45.23c-0.2,2.89-0.28,5.76,0.96,7.43c1.24,1.67,6.32,4.68,7.53,6.16
				c1.21,1.47,13.07,11.16,14.73,11.35c1.66,0.19,21.65-7.69,22.14-8.57c0.5-0.88,3.07-4.68,4.24-5.04c1.18-0.36,3,1.1,3.82,1.14
				c0.82,0.04,1.58,2.92,0.91,4.02c-0.67,1.11-4.19,3.83-5.45,3.56c-1.26-0.27-23.91,16.9-25.56,16.7
				c-1.66-0.19-13.32-5.21-14.07-4.71c-0.75,0.5,2.06,12.79,2.77,13.51c0.71,0.72,44.71,22.37,45.21,23.12
				c0.5,0.75,29.01,58.79,30.04,58.86c1.03,0.07,14.19,2.45,14.57,3.83c0.38,1.38-17.3,3.46-18.75,3.24s-33.76-46.51-37.81-51.13
				c-1.19-1.36-24.31-14.46-24.31-14.46s18.74,21.27,18.68,23.93c-0.06,2.66-36.31,41.65-36.2,42.45c0.1,0.8,1.28,5.14,1.96,5.66
				c0.68,0.52,6.18,2.06,5.91,3.11c-0.27,1.05-10.68,0.97-11.59,0.27c-0.91-0.7-5.54-11.32-5.75-12.92
				c-0.21-1.6,24.76-35.63,23.95-37.16c-0.81-1.53-27.54-26.83-29.31-29.46c-1.77-2.63-5.32-32.08-5.62-35.91
				c-0.29-3.84-3.35-16.47,2.12-19.51c2.38-1.33,7.54-3.23,7.33-4.83c-0.21-1.6-0.55-12.17,0.82-14.18
				C115.48,33.68,120.93,44.07,120.85,45.23z"/>
			<g>
				<g>
					<path class="st3" d="M132.15,189.4c-0.27,1.05-10.68,0.97-11.59,0.27c-0.91-0.7-5.54-11.32-5.75-12.92
						c-0.07-0.56,2.94-5.09,6.84-10.8c0.4,0.12,0.8,0.24,1.2,0.35c3.83,1.01,7.7,1.91,11.6,2.61c-5.77,6.46-10.2,11.43-10.17,11.71
						c0.1,0.8,1.28,5.14,1.96,5.66C126.92,186.81,132.42,188.35,132.15,189.4z"/>
					<path class="st3" d="M192.43,161.1c2.52-1.12,5.06-2.29,7.65-3.25c4.34,8.54,7.69,14.9,8.03,14.93
						c1.03,0.07,14.19,2.45,14.57,3.83c0.38,1.38-17.3,3.46-18.75,3.24c-0.61-0.09-6.54-8.14-13.56-17.85
						C191.05,161.7,191.74,161.4,192.43,161.1z"/>
				</g>
			</g>
			<path d="M138.77,139.59c-0.81-1.53-27.54-26.83-29.31-29.46c-0.9-1.33-2.25-9.54-3.41-17.81c0.8-0.18,1.63-0.29,2.43-0.38
				c7.93-0.88,13.69-1.51,21.62-2.39c0.24,0.8,2.63,1.1,2.76,1.24c0.71,0.72,44.71,22.37,45.21,23.12c0.41,0.6,18.91,38.24,26.68,53
				c-2.74,1.18-5.42,2.43-8.04,3.79c-10.16-13.79-27.69-38.67-30.6-41.99c-1.19-1.36-24.31-14.46-24.31-14.46
				s18.74,21.27,18.68,23.93c-0.05,2.11-22.94,27.16-32.29,37.76c-2.69-1.21-5.38-2.43-8.06-3.64c-0.71-0.32-1.42-0.64-2.12-0.96
				C124.68,161.28,139.39,140.77,138.77,139.59z"/>
			<path class="st10" d="M167.1,68.49c-6.88,4.02-21.64,13.65-22.94,13.5c-1.66-0.19-13.32-5.21-14.07-4.71
				c-0.65,0.44,1.39,9.8,2.4,12.7c-8.21,2.87-17.75,4.91-26.22,3.9c-1.22-8.55-2.28-17.65-2.43-19.66
				c-0.29-3.84-3.35-16.47,2.12-19.51c1.82-1.02,5.27-2.37,6.69-3.66c2.97,0.4,5.93,0.95,8.91,1.24c0.08,0.13,0.16,0.26,0.24,0.38
				c1.24,1.67,6.32,4.68,7.53,6.16c1.21,1.47,13.07,11.16,14.73,11.35c1.4,0.16,15.81-5.41,20.61-7.7
				C165.37,64.19,166.26,66.44,167.1,68.49z"/>
			<g>
				
					<rect x="175.06" y="37.78" transform="matrix(-0.7009 -0.7132 0.7132 -0.7009 270.207 204.8498)" class="st0" width="5.99" height="16"/>
				<path class="st13" d="M185.99,37.97c7.43,7.56,19.57,7.66,27.12,0.24c7.55-7.42,7.66-19.57,0.24-27.12
					c-7.43-7.56-19.57-7.66-27.12-0.24C178.67,18.27,178.57,30.41,185.99,37.97z"/>
				<path class="st2" d="M139.73,83.44c3.44,3.5,9.13,3.29,12.31-0.44l23.92-28.14c0.67-0.79,0.63-1.96-0.1-2.7l-4.23-4.3
					c-0.73-0.74-1.89-0.8-2.7-0.14l-28.55,23.43C136.59,74.25,136.29,79.94,139.73,83.44z"/>
				<g>
					<g>
						<path class="st14" d="M209.24,15.13c-6.72-6.84-17.31-7.57-24.86-2.14c0.56-0.74,1.17-1.47,1.85-2.14
							c7.55-7.43,19.7-7.32,27.12,0.24c7.42,7.56,7.32,19.7-0.24,27.12c-0.69,0.67-1.42,1.26-2.17,1.81
							C216.5,32.56,215.96,21.97,209.24,15.13z"/>
					</g>
				</g>
				<path class="st2" d="M182.18,41.72c9.49,9.66,25.02,9.8,34.68,0.3c9.66-9.49,9.8-25.02,0.3-34.68
					c-9.49-9.66-25.02-9.8-34.68-0.3C172.82,16.53,172.69,32.06,182.18,41.72z M186.23,10.85c7.55-7.43,19.7-7.32,27.12,0.24
					c7.42,7.56,7.32,19.7-0.24,27.12c-7.56,7.43-19.7,7.32-27.12-0.24S178.67,18.27,186.23,10.85z"/>
			</g>
			<path class="st9" d="M108.88,54.41c2.99,0.57,15.36,21.68,16.15,21.41c0.79-0.27,16.98-10.81,17.97-11.14
				c0.99-0.34,3.75-3.81,6.15-4.21c2.4-0.4,6.37,1.01,6.75,3.16c0.38,2.15-7.39,3.99-8.16,4.46c-0.77,0.47-20.02,20.9-23.68,20.79
				c-3.66-0.11-18.18-16.42-19.8-18.89C102.64,67.52,99.2,52.56,108.88,54.41z"/>
			<path class="st9" d="M123.33,45.86c-1.28,0.45-3.94,1.67-5.23,0.68c-1.29-1-4.89-5.68-4.94-8.66c-0.05-2.98-0.25-9,6.28-9.85
				c3.92-0.51,7.9,3.2,7.44,8.07C126.65,38.56,125.71,45.02,123.33,45.86z"/>
			<path class="st11" d="M104.26,70c-1.62-2.48-5.07-17.43,4.62-15.59c2.99,0.57,15.36,21.68,16.15,21.41
				c0.79-0.27,16.98-10.8,17.97-11.14c0.15-0.05,0.35-0.18,0.57-0.36c0.3,0.86,0.59,1.76,1.13,2.5c0.59,0.82,1.28,1.55,2.05,2.21
				c-4.11,4.07-19.46,19.96-22.69,19.86C120.4,88.78,105.88,72.47,104.26,70z"/>
			<path class="st9" d="M169.73,65.28c-3.31-0.82-3.21-2.45-3.58-4.12c-0.38-1.67,7.51-3.92,7.67-3.17
				C173.99,58.75,169.73,65.28,169.73,65.28z"/>
			<path d="M115.84,26.45c1.1-1.07,2.51-1.79,3.97-2.24c3.29-1.01,6.92-0.68,10.06,0.71c0.69,0.3,1.44,0.79,1.47,1.54
				c0.03,0.89-0.94,1.42-1.76,1.77c-0.23,0.1-0.47,0.21-0.62,0.41c-0.44,0.59,0.19,1.4,0.85,1.74c0.65,0.34,1.48,0.62,1.67,1.33
				c0.18,0.66-0.36,1.35-1,1.59c-0.65,0.24-1.36,0.14-2.04,0.05c-0.11,0.8,0.59,1.46,1.08,2.11c0.49,0.65,0.66,1.8-0.09,2.1
				c-0.28,0.11-0.6,0.05-0.89-0.03c-2.09-0.58-3.81-2.04-5.74-3.03c-1.93-0.99-4.46-1.44-6.15-0.08c-1.75,1.4-3.44,3.74-3.61,0
				C112.91,31.61,113.8,28.44,115.84,26.45z"/>
			<path class="st11" d="M123.58,49.2c0.12-0.02,0.25-0.03,0.36,0.02c0.21,0.1,0.24,0.4,0.23,0.64c-0.05,1.91-0.11,3.83-0.16,5.74
				c0,0.15-0.01,0.32-0.1,0.45c-0.23,0.35-0.77,0.19-1.14-0.02c-1.22-0.69-2.41-1.45-3.56-2.26c-0.1-0.07-0.2-0.14-0.32-0.15
				c-0.31-0.03-0.5,0.33-0.63,0.62c-0.53,1.2-1.74,2.2-3.05,2.06c-0.51-1.97-0.77-4-0.76-6.03c0-0.5,0.09-1.11,0.55-1.28
				c0.26-0.1,0.55-0.02,0.81,0.06c1.2,0.4,2.42,1.61,3.7,1.55C120.86,50.52,122.22,49.41,123.58,49.2z"/>
		</g>
	</g>
	<g>
		<path class="st1" d="M538.13,393.68c0,3.18,2.58,5.76,5.76,5.76c3.18,0,5.76-2.58,5.76-5.76c0-3.18-2.58-5.76-5.76-5.76
			C540.71,387.92,538.13,390.5,538.13,393.68z"/>
		<path class="st1" d="M518.36,75.31c0,3.18,2.58,5.76,5.76,5.76c3.18,0,5.76-2.58,5.76-5.76c0-3.18-2.58-5.76-5.76-5.76
			C520.94,69.55,518.36,72.13,518.36,75.31z"/>
		<circle class="st1" cx="344.2" cy="37.57" r="5.76"/>
		<path class="st1" d="M0.78,299.32c0,3.18,2.58,5.76,5.76,5.76c3.18,0,5.76-2.58,5.76-5.76c0-3.18-2.58-5.76-5.76-5.76
			C3.36,293.56,0.78,296.14,0.78,299.32z"/>
		<path class="st1" d="M560.46,303.52c2.21,0,4.01,1.8,4.01,4.01s-1.8,4.01-4.01,4.01c-2.21,0-4.01-1.8-4.01-4.01
			S558.24,303.52,560.46,303.52L560.46,303.52z M560.46,301.77c-3.18,0-5.76,2.58-5.76,5.76s2.58,5.76,5.76,5.76
			c3.18,0,5.76-2.58,5.76-5.76S563.64,301.77,560.46,301.77L560.46,301.77z"/>
		<path class="st1" d="M84.89,63.81c2.21,0,4.01,1.8,4.01,4.01c0,2.21-1.8,4.01-4.01,4.01c-2.21,0-4.01-1.8-4.01-4.01
			C80.88,65.61,82.68,63.81,84.89,63.81L84.89,63.81z M84.89,62.06c-3.18,0-5.76,2.58-5.76,5.76c0,3.18,2.58,5.76,5.76,5.76
			c3.18,0,5.76-2.58,5.76-5.76C90.65,64.64,88.07,62.06,84.89,62.06L84.89,62.06z"/>
		<path class="st1" d="M344.79,92.72c2.21,0,4.01,1.8,4.01,4.01c0,2.21-1.8,4.01-4.01,4.01c-2.21,0-4.01-1.8-4.01-4.01
			C340.78,94.52,342.58,92.72,344.79,92.72L344.79,92.72z M344.79,90.97c-3.18,0-5.76,2.58-5.76,5.76c0,3.18,2.58,5.76,5.76,5.76
			c3.18,0,5.76-2.58,5.76-5.76C350.55,93.55,347.97,90.97,344.79,90.97L344.79,90.97z"/>
		<path class="st1" d="M241.04,74.88c2.21,0,4.01,1.8,4.01,4.01c0,2.21-1.8,4.01-4.01,4.01s-4.01-1.8-4.01-4.01
			C237.03,76.68,238.83,74.88,241.04,74.88L241.04,74.88z M241.04,73.13c-3.18,0-5.76,2.58-5.76,5.76c0,3.18,2.58,5.76,5.76,5.76
			s5.76-2.58,5.76-5.76C246.8,75.71,244.22,73.13,241.04,73.13L241.04,73.13z"/>
		<path class="st1" d="M84.89,392.46c2.21,0,4.01,1.8,4.01,4.01c0,2.21-1.8,4.01-4.01,4.01c-2.21,0-4.01-1.8-4.01-4.01
			C80.88,394.26,82.68,392.46,84.89,392.46L84.89,392.46z M84.89,390.71c-3.18,0-5.76,2.58-5.76,5.76c0,3.18,2.58,5.76,5.76,5.76
			c3.18,0,5.76-2.58,5.76-5.76C90.65,393.29,88.07,390.71,84.89,390.71L84.89,390.71z"/>
		<path class="st1" d="M29.6,216.1c2.21,0,4.01,1.8,4.01,4.01c0,2.21-1.8,4.01-4.01,4.01c-2.21,0-4.01-1.8-4.01-4.01
			C25.59,217.9,27.39,216.1,29.6,216.1L29.6,216.1z M29.6,214.35c-3.18,0-5.76,2.58-5.76,5.76c0,3.18,2.58,5.76,5.76,5.76
			c3.18,0,5.76-2.58,5.76-5.76C35.36,216.93,32.78,214.35,29.6,214.35L29.6,214.35z"/>
	</g>
	<g>
		<path d="M389.15,58.45l0.63-3.06c0.29-1.43,2.07-1.94,3.07-0.89c3.24,3.38,9.56,8.76,9.55,10.25c0,0.6-3.65,4.47-3.65,4.47
			L389.15,58.45z"/>
		<path d="M435.73,26.1c1.05-0.9,2.55-1.48,3.82-1.01c0.96,0.36,2.5,1.02,3.5,1.25c4.25,0.98,4.68,0.18,7.65,0.57
			c2.4,0.32,2.87,1.9,3.02,4.02c0.19,2.7,0.44,4.88,3.34,6.01c2.28,0.89,3.53,0.93,5.8,1.91c2.34,1.01,2.91,2.66,3.14,4.63
			c0.41,3.46,4.06,3.87,5.49,6.24c3.19,5.29-1.03,5.73,2.52,8.71c1.88,1.58,3.83,3.75,3.86,6.75c0.03,3-1.61,4.08-2.63,5.25
			c-5.57,6.43-10.82,6.68-19.21,8.07c-9.14,1.52-18.96,0.38-26.8-4.56c-3.09-1.95-5.96-4.66-6.83-8.21
			c-0.62-2.53-0.16-5.22,0.75-7.66c0.72-1.94,1.74-3.8,3.24-5.23c1.62-1.55,3.95-2.89,4.05-5.13c0.05-1.21-0.61-2.46-0.19-3.6
			c0.28-0.77,0.98-1.29,1.57-1.86c2.17-2.1,2.89-5.01,1.92-7.8C432.72,31.57,433.32,28.16,435.73,26.1z"/>
		<path class="st9" d="M486.62,105.9c4.06,0.89,9.7,2.42,9.83,1.9c0.19-0.73-9.62-6.98-10.92-8.68c-1.3-1.7-7.99-21.66-11.43-27.8
			c-3.43-6.14-7.78-15.64-10.13-17.03c-2.35-1.39-11.7-3.7-12.87-5.15c-1.17-1.45-1.65-7.78-2.54-8.8c-0.9-1.01-5.4,0.18-4.61,3.14
			c0.58,2.18-0.54,5.74-1.11,6.81c-0.93,1.75-6.06,0.93-7.91,3.55c-1.85,2.62-11.78,19.03-13.38,19.97s-18.86-7.04-20.28-7.76
			c-1.42-0.72-5.34-3.8-5.34-3.8c-1.39,0.88,0.99,3.15-0.66,2.82c-1.66-0.33-4.31-7.96-6.13-6.63c-1.69,1.23,0.21,5.63,3.31,8.62
			c2.72,2.61,6.59,3.91,6.8,4.06c0.64,0.43,22.89,12.49,24.45,11.74c1.56-0.76,16.37-13.37,16.37-13.37c0.11,0.03,3.34,5.8,4,9.95
			c0.75,4.69-0.27,9.97-1.14,10.32c-0.87,0.35-29.82,6.92-36.96,10.32c-5.87,2.8-4.71,11.87-3.83,14.43
			c0.88,2.56,13.55,40.8,14.31,46.04c0.76,5.24,1.8,9.4,1.11,10.57c-0.7,1.18-7.76,9.02-7.52,10.64c0.24,1.61,15.11-5.54,15.81-7.49
			s-0.43-38.91-2.02-45.15c-1.59-6.24-5.73-14.11-4.95-14.88c0.78-0.76,22.73-8.16,23.64-7.92c0.91,0.24-9.34,24.08-8.88,27.5
			c0.46,3.42,10.71,49.76,10.97,51c0.26,1.23-5.34,12.96-3.71,14.16c1.62,1.2,11.78-11.66,12.08-13.52
			c0.29-1.86,0.74-33.21,0.25-38.5c-0.55-5.97-2.47-13.06-1.67-14.6c0.79-1.54,15.92-23.67,16.53-29.72
			c0.62-6.05-5.84-33.15-5.84-33.15s16.98,28.37,17.65,29.52c0.49,0.83,0.63,6.12,3.6,8.11c0.75,0.5,1.55,1.19,2.44,1.5
			c0.98,0.34,3.09,1.01,1.82-0.24c-0.17-0.17-1.47-1.63-1.6-1.84c-0.13-0.21-0.11-0.54,0.12-0.63
			C486.42,105.88,486.53,105.89,486.62,105.9z"/>
		<path class="st9" d="M441.85,30.29c-4.2,0.67-5.44,5.12-5.06,8.72c0.38,3.6,2.63,7.76,3.85,8.42c1.21,0.65,7.81-1.24,8.98-2.65
			C450.79,43.37,447.93,29.31,441.85,30.29z"/>
		<g>
			<g>
				<path class="st3" d="M453.19,181.74c-1.29,1.62-2.57,3.26-4.12,4.64c-1.64,1.46-3.66,2.62-5.81,2.89
					c-1.45,3.88-3.36,8.94-2.32,9.71c1.62,1.2,11.78-11.66,12.08-13.52C453.07,185.12,453.13,183.76,453.19,181.74z"/>
				<path class="st3" d="M417.47,173.71c-0.48-0.08-1.03-0.23-1.53-0.47c-2.29,2.8-6.05,7.35-5.88,8.53
					c0.24,1.61,15.11-5.54,15.81-7.49c0.12-0.33,0.19-1.66,0.21-3.66C423.65,172.77,420.61,174.22,417.47,173.71z"/>
			</g>
		</g>
		<path class="st10" d="M474.11,71.33c-3.43-6.14-7.78-15.64-10.13-17.03c-1.7-1-7.03-2.48-10.32-3.78
			c-0.67,1.37-1.41,2.71-2.49,3.78c-1.35,1.34-3.35,2.19-5.18,1.66c-1.46-0.42-2.45-1.59-3.13-2.9c-0.27-0.52-0.44-1.39-0.71-2.13
			c-1.72,0.94-5.65,0.7-7.22,2.92c-1.85,2.62-11.78,19.03-13.38,19.97c-1.5,0.87-16.59-6.9-20.28-7.76
			c0.07,1.47-0.92,4.03-1.29,5.45c3.88,1.98,22.31,12.03,23.72,11.35c1.56-0.76,16.37-13.37,16.37-13.37c0.11,0.03,3.34,5.8,4,9.95
			c0.47,2.92-1.15,5.47-0.08,7.53c0.03,0.04,1.18,1.77,1.21,1.81c0.62,0.76-0.24-0.29,1.3,0.74c3.66,2.47,8.18,3.32,12.44,2.14
			c2.07-0.58,4.72-0.23,6.85-1.29c0.28-0.14,0.67-1.03,0.93-1.23c1.19-4.52-4.44-19.65-4.44-19.65s16.98,28.37,17.65,29.52
			c0.1,0.18,0.19,0.57,0.3,1.09c1.54-0.76,3.11-1.46,4.71-2.11C482.85,93.33,477.18,76.82,474.11,71.33z"/>
		<path d="M466.73,89.15c-6.01,1.43-12.07,0.55-18.09-0.96c-1.53-0.38-3.12-0.72-4.63-1.22c-0.28,1.56-0.68,2.64-1.06,2.79
			c-0.87,0.35-30.65,6.54-37.79,9.95c-0.64,0.3-1.19,0.68-1.67,1.12c21.93,23.65,48.77,29.34,49.7,29.98
			c3.5-5.44,14.4-22.9,14.94-28.17C468.38,100.16,468.4,93.83,466.73,89.15z"/>
		<path class="st11" d="M439.07,51.28c-0.25,0.39-0.36,0.92-0.08,1.28c0.14,0.17,0.34,0.27,0.54,0.36c0.65,0.28,1.33,0.47,2.03,0.57
			c-0.5,0.45-0.93,0.96-1.28,1.53c-0.22,0.36-0.41,0.83-0.19,1.19c0.12,0.19,0.33,0.3,0.53,0.38c0.92,0.35,2.03,0.18,2.8-0.44
			c-0.42,0.92-0.63,2.02-0.22,2.94c0.42,0.93,1.63,1.52,2.5,1.01c0.46-0.27,0.74-0.76,1.1-1.16c0.37-0.41,0.89-0.97,0.55-1.41
			c0.03,0.82,0.58,1.6,1.35,1.91c0.17,0.07,0.34,0.11,0.52,0.09c0.2-0.03,0.37-0.14,0.53-0.26c0.44-0.33,0.83-0.77,1-1.29
			c0.17-0.53,0.1-1.15-0.28-1.56c0.51,0.27,1.02,0.53,1.59,0.62c0.56,0.09,1.19-0.04,1.58-0.46c0.69-0.76,0.26-2-0.42-2.77
			c1.26,0.38,2.72-0.72,2.7-2.03c-0.01-1.31-1.49-2.38-2.74-1.98c-0.11,0.04-0.22,0.08-0.3,0.16c-0.11,0.11-0.15,0.26-0.19,0.4
			c-0.7,2.21-2.97,3.83-5.29,3.76c-1.93-0.06-3.5-1.2-4.53-2.77c-0.39-0.6-0.63-1.03-1.37-1.14
			C440.6,50.09,439.56,50.51,439.07,51.28z"/>
		<path d="M436.7,37.28c0.31,0.12,0.67,0.16,1.09,0.08c0.77-0.15,1.29-0.71,2.01-0.96c0.48-0.17,1.03-0.19,1.47,0.06
			c0.7,0.4,1,1.38,1.79,1.54c0.82,0.17,1.55-0.7,2.39-0.68c0.84,0.02,1.38,0.87,2.11,1.28c1.12,0.62,2.57,0.04,3.07-1.11
			c0.48-1.11,0.16-2.43-0.49-3.45c-0.65-1.02-1.59-1.82-2.45-2.66c-1.12-1.09-2.18-2.29-3.59-2.96c-1.76-0.84-3.92-0.69-5.63,0.25
			c-1.46,0.8-3.17,2.5-3.39,4.23C434.92,34.25,435.25,36.71,436.7,37.28z"/>
		<g>
			<g>
				<path class="st2" d="M401.75,60.27c-0.36,0-0.66-0.29-0.66-0.66c0-1.8-0.6-3.33-1.74-4.43c-1.18-1.14-2.89-1.78-4.71-1.7
					c-0.41-0.01-0.67-0.27-0.68-0.64c-0.01-0.36,0.27-0.67,0.64-0.68c2.18-0.07,4.23,0.68,5.67,2.07c1.4,1.35,2.14,3.21,2.14,5.38
					C402.4,59.97,402.11,60.27,401.75,60.27z"/>
			</g>
			<g>
				<path class="st2" d="M407.66,61.17c-0.34,0-0.63-0.26-0.66-0.61c-0.61-8.38-4.91-12.48-13.13-12.53c-0.36,0-0.66-0.3-0.65-0.66
					c0-0.36,0.3-0.65,0.66-0.65c8.92,0.06,13.77,4.68,14.44,13.75c0.03,0.36-0.25,0.68-0.61,0.7
					C407.69,61.17,407.68,61.17,407.66,61.17z"/>
			</g>
			<g>
				<path class="st2" d="M413.18,62.96c-0.36,0-0.65-0.29-0.66-0.65c-0.26-13.45-7.15-19.99-20.89-19.9c-0.36,0-0.66-0.29-0.66-0.65
					c0-0.42,0.41-0.66,0.83-0.66c14.35,0,21.77,7.13,22.03,21.19c0.01,0.36-0.28,0.66-0.64,0.67
					C413.19,62.96,413.19,62.96,413.18,62.96z"/>
			</g>
		</g>
	</g>
</g>
</svg>
